<svg xmlns="http://www.w3.org/2000/svg" viewBox="-23 -24 1086 244" width="1086" height="244" role="img" aria-label="stredio"><path d="M57.89,196.04 C50.78,195.13 42.31,192.86 34.81,189.87 C32.24,188.84 29.69,188.00 29.14,188.00 C27.94,188.00 15.22,179.73 12.64,177.27 C8.83,173.63 4.32,167.36 2.51,163.19 C0.66,158.93 0.67,158.82 2.81,152.87 C5.98,144.06 10.66,139.00 15.63,139.00 C16.48,139.00 19.94,141.81 23.32,145.25 C29.84,151.86 43.96,159.99 48.96,160.01 C50.35,160.01 52.85,160.74 54.50,161.64 C56.85,162.91 61.51,163.37 76.01,163.76 C92.77,164.20 95.27,164.05 102.35,162.11 C115.69,158.44 124.81,152.21 129.09,143.82 C132.22,137.70 131.65,134.56 126.52,129.57 C120.76,123.98 117.61,123.24 90.00,121.07 C83.67,120.57 72.20,120.10 64.50,120.02 C56.80,119.95 48.48,119.50 46.00,119.05 C26.77,115.47 22.95,113.81 15.22,105.64 C9.84,99.95 4.00,89.33 4.00,85.22 C4.00,83.96 3.32,81.32 2.50,79.35 C0.60,74.80 0.59,63.73 2.47,58.50 C3.26,56.30 3.93,53.08 3.96,51.35 C4.03,45.92 10.62,34.72 17.87,27.71 C21.52,24.18 25.85,20.55 27.50,19.63 C29.15,18.72 31.18,17.58 32.00,17.10 C40.21,12.31 56.09,8.15 71.00,6.88 C84.99,5.69 103.82,6.77 110.50,9.16 C112.15,9.74 115.53,10.81 118.00,11.52 C125.15,13.57 130.76,16.40 139.59,22.40 C141.29,23.56 144.77,26.88 147.34,29.78 C151.65,34.68 152.00,35.47 152.00,40.44 C152.00,45.22 151.55,46.39 147.93,50.97 C143.76,56.24 138.76,59.99 135.87,60.00 C134.98,60.00 130.72,57.30 126.42,54.00 C122.11,50.70 118.12,48.00 117.55,48.00 C116.97,48.00 114.70,47.16 112.50,46.12 C102.15,41.24 98.17,40.54 78.98,40.19 C63.63,39.91 59.70,40.13 55.98,41.50 C53.52,42.41 49.92,43.50 48.00,43.92 C43.01,45.02 32.98,52.04 28.34,57.68 C23.01,64.17 21.62,69.02 23.64,74.07 C27.26,83.12 38.17,87.10 66.00,89.55 C68.47,89.77 72.08,90.18 74.00,90.47 C75.92,90.76 85.22,91.41 94.66,91.92 C117.02,93.12 126.64,95.88 134.82,103.43 C137.85,106.23 144.00,114.39 144.00,115.60 C144.00,115.88 144.96,118.22 146.14,120.80 C148.00,124.88 148.28,127.28 148.25,139.00 C148.22,150.77 147.90,153.33 145.80,159.00 C140.99,171.91 136.92,177.90 129.01,183.65 C125.72,186.04 122.69,188.00 122.27,188.01 C121.84,188.01 120.15,188.72 118.50,189.59 C116.85,190.45 112.12,192.29 108.00,193.66 C101.36,195.87 98.43,196.19 82.50,196.52 C72.60,196.72 61.53,196.50 57.89,196.04 Z M222.50,192.29 C219.75,191.63 214.03,186.10 212.55,182.69 C211.61,180.53 211.43,164.99 211.77,116.69 C212.08,72.55 211.88,52.67 211.12,50.73 C209.44,46.45 206.26,45.79 195.70,47.51 C190.64,48.34 184.70,49.67 182.50,50.46 C175.64,52.95 173.38,52.47 168.58,47.53 C164.92,43.76 164.14,42.23 163.59,37.78 C162.19,26.38 165.51,19.37 174.50,14.70 C179.47,12.12 184.43,11.36 209.50,9.39 C234.65,7.41 272.63,9.96 277.44,13.95 C278.25,14.62 280.05,17.12 281.45,19.51 C283.51,23.02 284.00,25.17 284.00,30.69 C284.00,38.69 281.89,43.55 277.21,46.30 C274.30,48.01 273.85,48.01 267.83,46.40 C264.02,45.37 257.44,44.66 251.28,44.60 C241.92,44.51 240.88,44.69 238.78,46.78 L236.50,49.06 L236.50,117.60 L236.50,186.15 L232.76,189.57 C229.19,192.86 227.13,193.40 222.50,192.29 Z M833.03,188.03 C830.84,185.84 828.79,183.01 828.47,181.74 C827.86,179.32 828.69,106.09 829.50,90.50 C830.57,69.94 831.27,66.27 834.80,62.74 C837.74,59.80 838.60,59.50 844.09,59.50 C849.78,59.50 850.32,59.71 853.11,63.00 L856.08,66.50 L855.42,79.50 C854.60,95.30 854.62,129.45 855.45,156.50 L856.06,176.50 L853.04,181.24 C849.56,186.68 842.79,192.00 839.35,192.00 C837.94,192.00 835.40,190.40 833.03,188.03 Z M922.53,190.19 C922.36,190.03 916.10,189.51 908.62,189.04 C895.89,188.25 894.81,188.02 891.76,185.47 C887.69,182.08 886.86,180.65 885.87,175.33 C884.75,169.36 887.72,162.87 893.23,159.23 L897.35,156.50 L955.11,156.22 L1012.86,155.94 L1016.30,158.96 C1020.86,162.96 1022.61,168.99 1020.99,175.08 C1019.57,180.40 1017.79,182.55 1012.50,185.29 C1008.85,187.18 1006.00,187.43 980.00,188.14 C964.33,188.56 948.58,189.16 945.00,189.46 C936.82,190.15 922.94,190.60 922.53,190.19 Z M916.85,139.52 C916.58,139.25 912.85,138.30 908.54,137.41 C898.97,135.43 892.72,132.24 887.61,126.71 C882.94,121.66 876.38,109.59 875.42,104.31 C875.05,102.21 874.26,99.60 873.69,98.50 C872.08,95.44 871.22,79.71 872.03,68.00 C872.88,55.72 874.94,48.52 881.64,34.53 C886.35,24.71 904.47,8.00 910.42,8.00 C911.29,8.00 914.58,7.14 917.75,6.09 C920.91,5.04 927.33,3.95 932.01,3.66 C936.69,3.37 941.65,2.70 943.02,2.18 C946.24,0.96 972.44,-0.46 974.00,0.50 C974.65,0.90 977.51,1.36 980.34,1.51 C987.72,1.91 999.69,4.51 1005.38,6.95 C1011.10,9.40 1017.92,14.67 1023.58,21.00 C1029.93,28.11 1031.15,30.27 1035.49,42.00 C1036.41,44.48 1037.80,47.21 1038.58,48.08 C1040.68,50.41 1040.67,94.20 1038.56,95.95 C1037.77,96.60 1036.81,98.57 1036.43,100.32 C1036.05,102.07 1034.97,104.92 1034.05,106.65 C1031.45,111.50 1021.80,123.03 1019.00,124.63 C1017.62,125.42 1015.15,126.94 1013.50,128.02 C1007.92,131.67 996.51,135.39 986.00,136.99 C982.42,137.54 977.48,138.42 975.00,138.95 C970.50,139.91 917.76,140.43 916.85,139.52 Z M972.50,100.17 C991.67,98.96 1003.86,96.41 1007.72,92.82 C1011.27,89.50 1015.05,81.56 1016.67,74.01 C1019.01,63.10 1016.14,52.45 1008.62,44.16 C1007.45,42.87 1003.65,40.48 1000.17,38.85 L993.83,35.88 L959.17,36.25 C925.70,36.60 924.28,36.69 918.22,38.96 C914.76,40.25 909.92,43.08 907.46,45.25 C902.01,50.04 896.01,58.84 895.96,62.10 C895.95,63.42 895.29,65.62 894.50,67.00 C892.53,70.45 892.66,74.72 894.95,82.10 C898.28,92.78 908.43,99.86 920.79,100.12 C923.93,100.18 927.85,100.59 929.50,101.03 C933.08,101.97 949.19,101.65 972.50,100.17 Z M837.64,45.13 C830.79,42.72 829.73,40.29 830.16,27.95 C830.48,18.66 830.66,17.96 833.44,15.06 C836.08,12.31 836.98,12.00 842.38,12.00 C847.25,12.00 849.12,12.50 852.20,14.64 L856.00,17.27 L856.00,28.45 C856.00,39.37 855.94,39.68 853.25,42.12 C850.38,44.74 845.76,47.06 843.70,46.92 C843.04,46.88 840.31,46.07 837.64,45.13 Z" fill="#FFFFFF" fill-rule="evenodd"/><path d="M426.77,193.41 C424.17,192.61 421.63,191.18 421.13,190.23 C420.13,188.35 417.20,174.54 416.09,166.50 C415.71,163.75 414.88,160.56 414.25,159.41 C413.62,158.26 412.49,155.54 411.74,153.36 C409.34,146.41 403.00,138.07 396.20,132.92 C392.63,130.21 389.07,128.00 388.30,128.00 C387.53,128.00 385.46,127.23 383.70,126.29 C374.60,121.44 323.97,120.74 320.77,125.43 C320.36,126.02 320.02,138.39 320.02,152.91 L320.00,179.32 L317.46,183.66 C315.02,187.82 314.72,188.00 310.14,188.00 C304.00,188.00 300.63,184.71 297.93,176.04 C296.11,170.17 296.00,166.34 296.01,107.66 C296.03,50.20 296.18,44.67 298.00,34.50 C299.09,28.45 299.98,23.20 299.99,22.83 C300.02,21.20 305.56,15.76 308.88,14.09 C310.87,13.09 314.84,11.98 317.69,11.61 C320.55,11.25 324.37,10.34 326.19,9.60 C328.01,8.85 335.30,7.93 342.39,7.54 C349.48,7.15 356.13,6.52 357.17,6.13 C358.91,5.49 392.90,7.36 397.50,8.35 C404.95,9.96 416.21,13.23 418.62,14.49 C420.21,15.31 422.23,15.99 423.12,15.99 C424.00,16.00 425.87,16.90 427.27,18.00 C428.67,19.10 430.09,20.00 430.43,20.00 C431.55,20.00 444.00,30.17 444.00,31.08 C444.00,31.57 445.80,34.57 448.00,37.74 C450.20,40.91 452.00,44.53 452.00,45.78 C452.00,47.04 452.67,49.67 453.49,51.64 C454.31,53.60 454.76,55.57 454.49,56.02 C454.22,56.46 454.52,59.09 455.16,61.87 C456.17,66.25 456.03,68.23 454.09,76.71 C450.12,94.13 443.34,104.82 432.13,111.37 C428.48,113.50 424.26,115.68 422.75,116.22 C421.24,116.76 420.00,117.91 420.00,118.78 C420.00,119.65 422.60,124.22 425.77,128.93 C428.94,133.64 433.26,141.04 435.36,145.37 C438.82,152.50 440.14,156.24 443.02,167.00 C443.53,168.93 443.96,174.87 443.98,180.21 L444.00,189.93 L440.27,192.46 C436.06,195.32 433.57,195.50 426.77,193.41 Z M544.50,192.03 C530.34,191.60 522.89,190.94 519.00,189.78 C515.98,188.87 511.70,187.66 509.50,187.09 C507.30,186.52 503.22,184.58 500.44,182.78 C484.67,172.55 479.57,165.10 474.22,144.50 C471.70,134.79 471.62,133.62 471.66,104.50 C471.69,75.85 471.81,73.92 474.38,61.61 C477.85,45.01 482.18,35.72 490.41,27.21 C495.77,21.67 504.64,16.00 507.93,16.00 C508.52,16.00 511.58,15.13 514.75,14.06 C520.66,12.07 539.17,10.12 553.50,9.98 C564.46,9.87 591.29,12.34 603.91,14.62 C613.70,16.39 614.58,16.75 618.58,20.64 C624.23,26.12 625.29,31.70 621.94,38.40 C620.70,40.89 618.37,44.19 616.77,45.72 C614.03,48.34 613.41,48.48 606.18,48.21 C601.96,48.05 594.23,47.23 589.00,46.38 C577.83,44.56 543.96,44.38 531.50,46.06 C527.10,46.66 521.10,47.48 518.18,47.88 C515.25,48.29 512.54,49.13 512.16,49.75 C511.77,50.37 510.23,51.34 508.72,51.92 C504.18,53.64 500.37,60.90 498.94,70.54 C497.53,79.99 498.16,82.75 502.38,85.51 C504.60,86.97 506.66,87.01 522.68,85.95 C532.48,85.30 550.91,84.58 563.63,84.35 L586.76,83.93 L589.92,86.58 C594.29,90.27 596.00,94.03 596.00,100.01 C596.00,107.94 592.22,115.01 586.50,117.79 C582.03,119.96 581.19,120.00 541.97,120.00 C503.07,120.00 501.95,120.05 499.96,122.04 C496.63,125.37 495.82,128.90 496.53,136.98 C497.96,153.41 503.56,158.60 521.43,160.06 C526.97,160.51 536.23,161.35 542.00,161.93 C547.77,162.51 553.85,162.69 555.50,162.34 C557.15,161.99 560.52,161.61 563.00,161.50 C573.21,161.06 593.64,158.95 596.47,158.04 C600.56,156.73 618.33,155.01 620.89,155.68 C622.01,155.98 624.08,158.16 625.47,160.54 C629.00,166.57 629.04,175.21 625.54,179.94 C621.45,185.48 618.11,187.04 602.00,190.93 C596.90,192.17 567.55,192.72 544.50,192.03 Z M691.50,191.04 C690.40,190.55 683.65,190.10 676.50,190.06 C668.61,190.01 661.37,189.41 658.08,188.53 C645.43,185.17 640.18,172.66 640.84,147.50 C641.28,131.15 641.27,54.18 640.83,35.46 C640.30,12.91 640.10,13.03 682.00,9.83 C702.85,8.23 719.85,8.70 742.00,11.48 C763.24,14.14 774.68,19.52 787.00,32.64 C794.74,40.89 802.79,52.65 804.21,57.79 C804.77,59.82 805.85,62.38 806.61,63.47 C807.38,64.55 808.00,66.13 808.01,66.97 C808.01,67.81 808.72,69.85 809.59,71.50 C810.45,73.15 811.55,78.10 812.03,82.50 C812.50,86.90 813.33,92.74 813.86,95.48 C814.39,98.22 814.66,100.74 814.45,101.07 C814.25,101.41 813.62,107.39 813.05,114.38 C812.33,123.17 811.40,128.43 810.01,131.48 C808.90,133.91 808.00,136.78 808.00,137.86 C808.00,140.02 804.54,146.98 799.97,154.00 C798.36,156.47 796.62,159.40 796.10,160.50 C793.60,165.83 780.84,176.76 772.82,180.44 C771.00,181.27 768.83,182.36 768.00,182.85 C765.48,184.35 753.01,187.79 743.50,189.61 C733.42,191.55 694.95,192.60 691.50,191.04 Z M730.00,149.96 C734.12,149.43 741.10,148.59 745.50,148.08 C754.28,147.07 760.25,144.73 766.76,139.76 C771.15,136.40 780.00,125.63 780.01,123.63 C780.01,123.01 780.72,121.15 781.59,119.50 C783.47,115.91 786.00,102.36 786.00,95.83 C786.00,90.19 783.72,80.88 780.86,74.90 C778.99,70.97 772.44,61.92 770.97,61.23 C770.66,61.09 768.01,59.17 765.09,56.97 C762.17,54.78 758.59,52.74 757.14,52.45 C755.69,52.16 751.42,50.98 747.65,49.82 C741.11,47.80 739.33,47.73 708.05,48.23 C678.44,48.70 675.03,48.93 672.40,50.60 C670.81,51.62 669.17,52.91 668.77,53.48 C668.36,54.04 668.02,74.39 668.02,98.69 L668.00,142.89 L670.25,145.43 C674.01,149.68 681.10,150.87 703.00,150.89 C713.73,150.90 725.88,150.48 730.00,149.96 Z M395.95,92.89 C408.78,91.22 421.35,86.37 427.84,80.58 C430.79,77.95 435.00,69.15 435.00,65.62 C435.00,60.89 430.36,53.40 424.43,48.57 C421.34,46.06 418.06,44.00 417.13,44.00 C416.20,44.00 414.55,43.37 413.45,42.61 C412.36,41.84 406.60,40.04 400.65,38.61 C390.84,36.24 388.06,36.01 370.67,36.08 C360.13,36.13 349.02,36.54 346.00,36.99 C340.68,37.79 328.89,39.76 324.22,40.63 C322.96,40.86 321.03,42.50 319.93,44.28 C318.21,47.03 317.93,49.16 317.98,59.00 C318.01,65.33 317.76,72.15 317.42,74.16 C316.60,79.05 319.38,88.45 322.24,90.45 C323.97,91.67 327.68,92.03 339.47,92.12 C347.74,92.18 355.85,92.58 357.50,93.00 C362.18,94.19 386.47,94.12 395.95,92.89 Z" fill="#D02334" fill-rule="evenodd"/></svg>